<?xml version="1.0" encoding="UTF-8"?>
<svg id="Layer_1" data-name="Layer 1" xmlns="http://www.w3.org/2000/svg" viewBox="0 0 232.09 116.47">
  <defs>
    <style>
      .cls-1 {
        fill: #2a1434;
        stroke-width: 0px;
      }
    </style>
  </defs>
  <g>
    <path class="cls-1" d="M12.5,55.59h9.15v23.33l.14.07,20.52-23.4h11.02l-21.53,24.19,23.4,27.94h-11.52l-21.89-26.5-.14.07v26.43h-9.15v-52.13Z"/>
    <path class="cls-1" d="M63.54,55.15c2.95,0,5.4,2.45,5.4,5.4s-2.45,5.4-5.47,5.4-5.4-2.45-5.4-5.4,2.45-5.4,5.47-5.4ZM59.15,72.29h8.71v35.43h-8.71v-35.43Z"/>
    <path class="cls-1" d="M74.27,107.72l-.07-.14,17.64-27.72-.07-.14h-16.06v-7.42h30.31l.07.14-17.64,27.72.07.14h17.14v7.42h-31.39Z"/>
    <path class="cls-1" d="M128.85,71.5c11.02,0,19.23,8.06,19.23,18.51s-8.21,18.51-19.23,18.51-19.23-8.06-19.23-18.51,8.21-18.51,19.23-18.51ZM128.85,100.88c6.05,0,10.51-4.75,10.51-10.87s-4.46-10.87-10.51-10.87-10.51,4.75-10.51,10.87,4.46,10.87,10.51,10.87Z"/>
    <path class="cls-1" d="M154.98,97.42c4.46,2.74,9.86,3.96,13.75,3.96s6.48-1.15,6.48-3.82c0-3.53-4.54-3.38-9.94-4.54-6.77-1.44-11.38-3.82-11.38-10.22.07-7.42,6.48-11.31,14.98-11.31,4.25,0,9.36.86,13.1,2.81v7.92c-4.32-2.45-9.5-3.6-13.1-3.6s-6.19,1.08-6.19,3.53c0,3.31,4.46,3.24,9.72,4.32,6.77,1.44,11.59,3.6,11.59,10.37,0,7.99-7.06,11.67-15.41,11.67-4.39,0-9.65-.94-13.61-2.95v-8.14Z"/>
  </g>
  <path class="cls-1" d="M181.02,46.06c.59,3.48-1.76,6.78-5.24,7.37l-9.46,1.6,1.34,7.88c.1.6-.13,1.2-.63,1.56s-1.15.41-1.68.13l-13.73-7.08-13.66,2.32c-3.48.59-6.78-1.76-7.37-5.24l-4.81-28.37c-.59-3.48,1.76-6.78,5.24-7.37l37.82-6.41c3.48-.59,6.78,1.76,7.37,5.24l4.81,28.37ZM161.79,28.24c-.3-1.74-1.95-2.91-3.69-2.62s-2.91,1.95-2.62,3.69,1.95,2.91,3.69,2.62,2.91-1.95,2.62-3.69ZM149.18,30.38c-.3-1.74-1.95-2.91-3.69-2.62s-2.91,1.95-2.62,3.69,1.95,2.91,3.69,2.62,2.91-1.95,2.62-3.69ZM164.32,37.35c-1.12-.7-2.61-.37-3.31.75-1.41,2.24-3.71,3.87-6.52,4.35s-5.52-.31-7.59-1.96c-1.04-.83-2.54-.66-3.37.38s-.65,2.54.38,3.37c3.08,2.46,7.17,3.65,11.37,2.94,4.2-.71,7.67-3.18,9.77-6.52.7-1.12.37-2.61-.75-3.31h.02Z"/>
  <path class="cls-1" d="M186.32,15.29c.46-2.72,3.05-4.56,5.78-4.1l29.64,5.02c2.72.46,4.56,3.05,4.1,5.78l-3.77,22.23c-.46,2.72-3.05,4.56-5.78,4.1l-10.7-1.81-10.76,5.54c-.42.22-.93.18-1.32-.1s-.57-.75-.49-1.22l1.05-6.17-7.41-1.26c-2.72-.46-4.56-3.05-4.1-5.78l3.77-22.23ZM199.67,26.45c1.36.23,2.66-.69,2.89-2.05s-.69-2.66-2.05-2.89-2.66.69-2.89,2.05.69,2.66,2.05,2.89ZM209.55,28.12c1.36.23,2.66-.69,2.89-2.05s-.69-2.66-2.05-2.89-2.66.69-2.89,2.05.69,2.66,2.05,2.89ZM195.66,30.7c-.88.55-1.14,1.71-.59,2.59,1.65,2.61,4.37,4.55,7.65,5.11s6.49-.38,8.91-2.3c.81-.65.94-1.82.3-2.64s-1.82-.94-2.64-.3c-1.62,1.29-3.74,1.91-5.94,1.53s-4-1.65-5.11-3.41c-.55-.88-1.71-1.14-2.59-.59h.02Z"/>
</svg>