<?xml version="1.0" encoding="utf-8"?>
<!-- Generator: Adobe Illustrator 28.3.0, SVG Export Plug-In . SVG Version: 6.00 Build 0)  -->
<svg version="1.1" id="Layer_1" xmlns="http://www.w3.org/2000/svg" xmlns:xlink="http://www.w3.org/1999/xlink" x="0px" y="0px"
	 viewBox="0 0 512 512" style="enable-background:new 0 0 512 512;" xml:space="preserve">
<style type="text/css">
	.st0{opacity:0.1;fill:#FFFFFF;}
</style>
<path class="st0" d="M26.8,33.4c-0.5-4.8,3-9.1,7.8-9.6l52.2-5.3c4.8-0.5,9.1,3,9.6,7.8l4,39.2c0.5,4.8-3,9.1-7.8,9.6L73.7,77
	L58.2,91.3c-0.6,0.6-1.5,0.7-2.3,0.4s-1.3-1-1.4-1.8l-1.1-10.9l-13.1,1.3c-4.8,0.5-9.1-3-9.6-7.8L26.8,33.4z M54.5,46
	c2.4-0.2,4.2-2.4,3.9-4.8c-0.2-2.4-2.4-4.2-4.8-3.9c-2.4,0.2-4.2,2.4-3.9,4.8C49.9,44.5,52.1,46.2,54.5,46z M71.9,44.2
	c2.4-0.2,4.2-2.4,3.9-4.8c-0.2-2.4-2.4-4.2-4.8-3.9c-2.4,0.2-4.2,2.4-3.9,4.8C67.3,42.7,69.5,44.5,71.9,44.2z M49.7,55
	c-1.2,1.3-1.1,3.4,0.2,4.6c4,3.6,9.5,5.6,15.3,5.1c5.8-0.6,10.8-3.6,13.9-8c1.1-1.5,0.7-3.5-0.7-4.6c-1.5-1.1-3.5-0.7-4.6,0.7
	c-2.1,2.9-5.4,4.9-9.3,5.3c-3.9,0.4-7.5-0.9-10.2-3.4C53,53.6,50.9,53.7,49.7,55L49.7,55z"/>
<path class="st0" d="M184.7,154.2c-0.7,5.4-5.7,9.3-11.1,8.5l-14.8-1.9l-1.6,12.3c-0.1,0.9-0.7,1.7-1.6,2c-0.9,0.3-1.9,0.1-2.6-0.6
	l-17.2-16.8l-21.3-2.8c-5.4-0.7-9.3-5.7-8.5-11.1l5.8-44.3c0.7-5.4,5.7-9.3,11.1-8.5l59.1,7.8c5.4,0.7,9.3,5.7,8.5,11.1L184.7,154.2
	z M164.3,119c0.4-2.7-1.6-5.2-4.3-5.6c-2.7-0.4-5.2,1.6-5.6,4.3c-0.4,2.7,1.6,5.2,4.3,5.6S164,121.7,164.3,119z M144.6,116.4
	c0.4-2.7-1.6-5.2-4.3-5.6c-2.7-0.4-5.2,1.6-5.6,4.3s1.6,5.2,4.3,5.6S144.3,119.1,144.6,116.4z M163.9,133.6
	c-1.3-1.6-3.7-1.7-5.3-0.4c-3.1,2.7-7.3,4-11.7,3.5s-8.1-3-10.4-6.4c-1.2-1.7-3.5-2.1-5.2-1s-2.1,3.5-1,5.2c3.5,5.1,9,8.7,15.5,9.6
	c6.6,0.9,12.8-1.2,17.5-5.2C165,137.5,165.2,135.2,163.9,133.6L163.9,133.6z"/>
<path class="st0" d="M163.4,352.8c0.6,4.8-2.8,9.2-7.6,9.7l-13,1.6L144,375c0.1,0.8-0.3,1.6-1,2.1c-0.7,0.5-1.6,0.5-2.3,0.1
	l-18.3-10.6l-18.8,2.3c-4.8,0.6-9.2-2.8-9.7-7.6l-4.7-39.1c-0.6-4.8,2.8-9.2,7.6-9.7l52.1-6.3c4.8-0.6,9.2,2.8,9.7,7.6L163.4,352.8z
	 M138.2,327.2c-0.3-2.4-2.5-4.1-4.9-3.8c-2.4,0.3-4.1,2.5-3.8,4.9c0.3,2.4,2.5,4.1,4.9,3.8S138.5,329.6,138.2,327.2z M120.9,329.3
	c-0.3-2.4-2.5-4.1-4.9-3.8c-2.4,0.3-4.1,2.5-3.8,4.9c0.3,2.4,2.5,4.1,4.9,3.8C119.5,333.9,121.2,331.7,120.9,329.3z M141.1,339.8
	c-1.5-1-3.5-0.7-4.6,0.8c-2.1,3-5.3,5.1-9.2,5.5c-3.9,0.5-7.5-0.8-10.2-3.2c-1.4-1.2-3.4-1.1-4.6,0.3s-1.1,3.4,0.3,4.6
	c4.1,3.6,9.6,5.4,15.4,4.7c5.8-0.7,10.7-3.9,13.8-8.3C142.9,342.9,142.6,340.8,141.1,339.8L141.1,339.8z"/>
<path class="st0" d="M297.5,446.8c-0.2,4.8-4.3,8.6-9.1,8.4l-13.1-0.5l-0.4,10.9c0,0.8-0.5,1.6-1.3,1.9c-0.8,0.3-1.7,0.2-2.3-0.3
	l-16.4-13.4l-18.9-0.8c-4.8-0.2-8.6-4.3-8.4-9.1l1.6-39.3c0.2-4.8,4.3-8.6,9.1-8.4l52.4,2.1c4.8,0.2,8.6,4.3,8.4,9.1L297.5,446.8z
	 M276.8,417.5c0.1-2.4-1.8-4.4-4.2-4.5s-4.4,1.8-4.5,4.2s1.8,4.4,4.2,4.5S276.7,420,276.8,417.5z M259.3,416.8
	c0.1-2.4-1.8-4.4-4.2-4.5c-2.4-0.1-4.4,1.8-4.5,4.2c-0.1,2.4,1.8,4.4,4.2,4.5C257.1,421.1,259.2,419.2,259.3,416.8z M277.6,430.4
	c-1.3-1.3-3.4-1.2-4.6,0.1c-2.5,2.6-6.1,4.1-10,4c-3.9-0.2-7.3-2-9.6-4.8c-1.2-1.4-3.2-1.6-4.6-0.4s-1.6,3.2-0.4,4.6
	c3.4,4.2,8.6,6.9,14.4,7.1c5.8,0.2,11.2-2.1,14.9-6C278.9,433.8,278.8,431.7,277.6,430.4L277.6,430.4z"/>
<path class="st0" d="M317.9,285.8c-0.7,8.1-7.8,14.2-16,13.5l-22.1-1.9l-1.6,18.4c-0.1,1.4-1,2.6-2.3,3.1c-1.3,0.5-2.8,0.3-3.8-0.7
	l-26.7-23.7l-31.9-2.7c-8.1-0.7-14.2-7.8-13.5-16l5.6-66.3c0.7-8.1,7.8-14.2,16-13.5l88.3,7.4c8.1,0.7,14.2,7.8,13.5,16L317.9,285.8
	z M285.2,234.8c0.3-4.1-2.7-7.6-6.7-8c-4.1-0.3-7.6,2.7-8,6.7c-0.3,4.1,2.7,7.6,6.7,8C281.2,241.9,284.8,238.9,285.2,234.8z
	 M255.7,232.3c0.3-4.1-2.7-7.6-6.7-8c-4.1-0.3-7.6,2.7-8,6.7c-0.3,4.1,2.7,7.6,6.7,8C251.8,239.4,255.4,236.4,255.7,232.3z
	 M285.6,256.7c-2.1-2.2-5.6-2.3-7.8-0.2c-4.5,4.2-10.5,6.5-17.1,6s-12.2-3.9-15.9-8.8c-1.9-2.5-5.3-2.9-7.8-1.1
	c-2.5,1.9-2.9,5.3-1.1,7.8c5.5,7.3,14,12.3,23.8,13.1c9.8,0.8,19-2.7,25.6-9C287.5,262.4,287.6,258.9,285.6,256.7L285.6,256.7z"/>
<path class="st0" d="M439,124c-0.7,6.5-6.7,11.3-13.2,10.5l-17.8-2l-1.7,14.8c-0.1,1.1-0.9,2.1-1.9,2.5c-1.1,0.4-2.3,0.1-3.1-0.6
	l-21-19.8l-25.7-2.9c-6.5-0.7-11.3-6.7-10.5-13.2l6.1-53.4c0.7-6.5,6.7-11.3,13.2-10.5l71.1,8.1c6.5,0.7,11.3,6.7,10.5,13.2L439,124
	z M413.7,82.1c0.4-3.3-2-6.2-5.3-6.6c-3.3-0.4-6.2,2-6.6,5.3s2,6.2,5.3,6.6C410.4,87.8,413.3,85.4,413.7,82.1z M390,79.4
	c0.4-3.3-2-6.2-5.3-6.6s-6.2,2-6.6,5.3c-0.4,3.3,2,6.2,5.3,6.6S389.6,82.7,390,79.4z M413.5,99.8c-1.6-1.8-4.5-2-6.3-0.4
	c-3.7,3.3-8.7,5-13.9,4.4c-5.3-0.6-9.7-3.4-12.6-7.4c-1.4-2-4.2-2.5-6.2-1.1c-2,1.4-2.5,4.2-1.1,6.2c4.3,6,11,10.3,18.9,11.2
	c7.9,0.9,15.4-1.7,20.9-6.6C415,104.4,415.1,101.6,413.5,99.8L413.5,99.8z"/>
<path class="st0" d="M29.4,174c-1.1-4.7,1.8-9.4,6.5-10.6l51-12.3c4.7-1.1,9.4,1.8,10.6,6.5l9.2,38.3c1.1,4.7-1.8,9.4-6.5,10.6
	l-18.4,4.4l-13.5,16.3c-0.5,0.6-1.4,0.9-2.2,0.7c-0.8-0.2-1.4-0.8-1.6-1.6L62,215.7l-12.8,3.1c-4.7,1.1-9.4-1.8-10.6-6.5L29.4,174z
	 M58.6,182.8c2.3-0.6,3.8-2.9,3.2-5.3c-0.6-2.3-2.9-3.8-5.3-3.2c-2.3,0.6-3.8,2.9-3.2,5.3S56.2,183.3,58.6,182.8z M75.6,178.7
	c2.3-0.6,3.8-2.9,3.2-5.3c-0.6-2.3-2.9-3.8-5.3-3.2s-3.8,2.9-3.2,5.3C70.8,177.8,73.2,179.2,75.6,178.7z M55,192.4
	c-1,1.5-0.7,3.5,0.8,4.6c4.4,3.1,10.1,4.3,15.8,2.9c5.7-1.4,10.2-5.1,12.7-9.8c0.9-1.6,0.3-3.6-1.3-4.4c-1.6-0.9-3.6-0.3-4.4,1.3
	c-1.7,3.2-4.7,5.6-8.5,6.5c-3.8,0.9-7.6,0.1-10.5-2C58.1,190.5,56,190.9,55,192.4L55,192.4z"/>
<path class="st0" d="M371.8,326.3c-0.2-7.4,5.7-13.5,13.1-13.7l80.5-1.7c7.4-0.2,13.5,5.7,13.7,13.1l1.3,60.4
	c0.2,7.4-5.7,13.5-13.1,13.7l-29.1,0.6l-25.5,20c-1,0.8-2.4,0.9-3.5,0.4c-1.2-0.5-1.9-1.7-1.9-3l-0.4-16.8l-20.1,0.4
	c-7.4,0.2-13.5-5.7-13.7-13.1L371.8,326.3z M412.5,348.9c3.7-0.1,6.6-3.1,6.6-6.9c-0.1-3.7-3.1-6.6-6.9-6.6
	c-3.7,0.1-6.6,3.1-6.6,6.9C405.7,346.1,408.8,349,412.5,348.9z M439.4,348.3c3.7-0.1,6.6-3.1,6.6-6.9c-0.1-3.7-3.1-6.6-6.9-6.6
	c-3.7,0.1-6.6,3.1-6.6,6.9C432.6,345.5,435.7,348.4,439.4,348.3z M404.1,362.1c-2,1.9-2.1,5.1-0.2,7.1c5.6,6,13.8,9.8,22.7,9.6
	c8.9-0.2,16.9-4.3,22.3-10.5c1.8-2.1,1.6-5.3-0.6-7.1c-2.1-1.8-5.3-1.6-7.1,0.6c-3.6,4.2-8.9,6.9-14.9,7c-6,0.1-11.4-2.3-15.2-6.4
	C409.3,360.3,406.1,360.2,404.1,362.1L404.1,362.1z"/>
</svg>
